{
  "accessors": [
    {
      "bufferView": 2,
      "componentType": 5126,
      "count": 65533,
      "max": [
        19.14501953125,
        60.254379272460938,
        -12.073619842529297
      ],
      "min": [
        -1.6861200332641602,
        -22.828899383544922,
        -73.263679504394531
      ],
      "type": "VEC3"
    },
    {
      "bufferView": 2,
      "byteOffset": 786396,
      "componentType": 5126,
      "count": 65533,
      "max": [
        0.99999964237213135,
        0.98234462738037109,
        0.99814039468765259
      ],
      "min": [
        -0.99999982118606567,
        -0.9992753267288208,
        -0.99994730949401855
      ],
      "type": "VEC3"
    },
    {
      "bufferView": 3,
      "componentType": 5126,
      "count": 65533,
      "max": [
        0.99854129552841187,
        0.99999916553497314,
        0.92451310157775879,
        1
      ],
      "min": [
        -0.9889867901802063,
        -0.99999982118606567,
        -0.9856562614440918,
        -1
      ],
      "type": "VEC4"
    },
    {
      "bufferView": 1,
      "componentType": 5126,
      "count": 65533,
      "max": [
        0.50923001766204834,
        0.98649001121520996
      ],
      "min": [
        0.016969999298453331,
        0.80640000104904175
      ],
      "type": "VEC2"
    },
    {
      "bufferView": 0,
      "componentType": 5125,
      "count": 198417,
      "max": [
        65532
      ],
      "min": [
        0
      ],
      "type": "SCALAR"
    },
    {
      "bufferView": 2,
      "byteOffset": 1572792,
      "componentType": 5126,
      "count": 65533,
      "max": [
        20.323379516601562,
        61.181289672851562,
        7.0609102249145508
      ],
      "min": [
        6.839439868927002,
        -29.52140998840332,
        -57.600021362304688
      ],
      "type": "VEC3"
    },
    {
      "bufferView": 2,
      "byteOffset": 2359188,
      "componentType": 5126,
      "count": 65533,
      "max": [
        0.99999988079071045,
        0.99991101026535034,
        0.99404609203338623
      ],
      "min": [
        -0.99999970197677612,
        -0.99999898672103882,
        -0.81238847970962524
      ],
      "type": "VEC3"
    },
    {
      "bufferView": 3,
      "byteOffset": 1048528,
      "componentType": 5126,
      "count": 65533,
      "max": [
        0.99999368190765381,
        0.99999982118606567,
        0.99323379993438721,
        1
      ],
      "min": [
        -0.97926998138427734,
        -0.99999982118606567,
        -0.99924492835998535,
        -1
      ],
      "type": "VEC4"
    },
    {
      "bufferView": 1,
      "byteOffset": 524264,
      "componentType": 5126,
      "count": 65533,
      "max": [
        0.50757002830505371,
        0.99852997064590454
      ],
      "min": [
        0.0012199999764561653,
        0.80667001008987427
      ],
      "type": "VEC2"
    },
    {
      "bufferView": 0,
      "byteOffset": 793668,
      "componentType": 5125,
      "count": 280458,
      "max": [
        65532
      ],
      "min": [
        0
      ],
      "type": "SCALAR"
    },
    {
      "bufferView": 2,
      "byteOffset": 3145584,
      "componentType": 5126,
      "count": 38119,
      "max": [
        20.476579666137695,
        60.96221923828125,
        17.5093994140625
      ],
      "min": [
        7.7073202133178711,
        -29.184680938720703,
        -27.545379638671875
      ],
      "type": "VEC3"
    },
    {
      "bufferView": 2,
      "byteOffset": 3603012,
      "componentType": 5126,
      "count": 38119,
      "max": [
        0.99999964237213135,
        0.998646080493927,
        0.99998611211776733
      ],
      "min": [
        -0.99999308586120605,
        -0.996346116065979,
        -0.98312181234359741
      ],
      "type": "VEC3"
    },
    {
      "bufferView": 3,
      "byteOffset": 2097056,
      "componentType": 5126,
      "count": 38119,
      "max": [
        0.99999368190765381,
        0.99999934434890747,
        0.9990006685256958,
        1
      ],
      "min": [
        -0.99819087982177734,
        -0.99999958276748657,
        -0.98361295461654663,
        -1
      ],
      "type": "VEC4"
    },
    {
      "bufferView": 1,
      "byteOffset": 1048528,
      "componentType": 5126,
      "count": 38119,
      "max": [
        0.50757002830505371,
        0.99866002798080444
      ],
      "min": [
        0.0021699999924749136,
        0.80641001462936401
      ],
      "type": "VEC2"
    },
    {
      "bufferView": 0,
      "byteOffset": 1915500,
      "componentType": 5125,
      "count": 194217,
      "max": [
        38118
      ],
      "min": [
        0
      ],
      "type": "SCALAR"
    }
  ],
  "asset": {
    "extras": {
      "author": "theraplay (https://sketchfab.com/theraplay)",
      "license": "CC-BY-ND-4.0 (http://creativecommons.org/licenses/by-nd/4.0/)",
      "source": "https://sketchfab.com/models/9be79775e9db46a48f27ed83293172fb",
      "title": "Italian Euro Coin"
    },
    "generator": "Sketchfab-3.18.7",
    "version": "2.0"
  },
  "bufferViews": [
    {
      "buffer": 0,
      "byteLength": 2692368,
      "byteOffset": 0,
      "name": "floatBufferViews",
      "target": 34963
    },
    {
      "buffer": 0,
      "byteLength": 1353480,
      "byteOffset": 2692368,
      "byteStride": 8,
      "name": "floatBufferViews",
      "target": 34962
    },
    {
      "buffer": 0,
      "byteLength": 4060440,
      "byteOffset": 4045848,
      "byteStride": 12,
      "name": "floatBufferViews",
      "target": 34962
    },
    {
      "buffer": 0,
      "byteLength": 2706960,
      "byteOffset": 8106288,
      "byteStride": 16,
      "name": "floatBufferViews",
      "target": 34962
    }
  ],
  "buffers": [
    {
      "byteLength": 10813248,
      "uri": "scene.bin"
    }
  ],
  "extensionsUsed": [
    "KHR_materials_unlit"
  ],
  "images": [
    {
      "uri": "textures/material0_baseColor.jpeg"
    },
    {
      "uri": "textures/material0_emissive.jpeg"
    }
  ],
  "materials": [
    {
      "doubleSided": true,
      "emissiveFactor": [
        0,
        0,
        0
      ],
      "emissiveTexture": {
        "index": 1,
        "texCoord": 0
      },
      "extensions": {
        "KHR_materials_unlit": {}
      },
      "name": "material0",
      "pbrMetallicRoughness": {
        "baseColorFactor": [
          1,
          1,
          1,
          1
        ],
        "baseColorTexture": {
          "index": 0,
          "texCoord": 0
        },
        "metallicFactor": 0,
        "roughnessFactor": 1
      }
    }
  ],
  "meshes": [
    {
      "primitives": [
        {
          "attributes": {
            "NORMAL": 1,
            "POSITION": 0,
            "TANGENT": 2,
            "TEXCOORD_0": 3
          },
          "indices": 4,
          "material": 0,
          "mode": 4
        }
      ]
    },
    {
      "primitives": [
        {
          "attributes": {
            "NORMAL": 6,
            "POSITION": 5,
            "TANGENT": 7,
            "TEXCOORD_0": 8
          },
          "indices": 9,
          "material": 0,
          "mode": 4
        }
      ]
    },
    {
      "primitives": [
        {
          "attributes": {
            "NORMAL": 11,
            "POSITION": 10,
            "TANGENT": 12,
            "TEXCOORD_0": 13
          },
          "indices": 14,
          "material": 0,
          "mode": 4
        }
      ]
    }
  ],
  "nodes": [
    {
      "children": [
        1
      ],
      "name": "RootNode (gltf orientation matrix)",
      "rotation": [
        -0.70710678118654746,
        -0,
        -0,
        0.70710678118654757
      ]
    },
    {
      "children": [
        2
      ],
      "name": "RootNode (model correction matrix)"
    },
    {
      "children": [
        3,
        4,
        5
      ],
      "name": "model_Italian Euro Coin_20170620_233653306.obj.cleaner.materialmerger.gles"
    },
    {
      "mesh": 0,
      "name": ""
    },
    {
      "mesh": 1,
      "name": ""
    },
    {
      "mesh": 2,
      "name": ""
    }
  ],
  "samplers": [
    {
      "magFilter": 9729,
      "minFilter": 9987,
      "wrapS": 10497,
      "wrapT": 10497
    }
  ],
  "scene": 0,
  "scenes": [
    {
      "name": "OSG_Scene",
      "nodes": [
        0
      ]
    }
  ],
  "textures": [
    {
      "sampler": 0,
      "source": 0
    },
    {
      "sampler": 0,
      "source": 1
    }
  ]
}

